<svg width="40" height="40" viewBox="0 0 40 40" fill="none" xmlns="http://www.w3.org/2000/svg">
<circle cx="20" cy="20" r="20" fill="#5D79B2"/>
<path d="M12 12H17V10H10V17H12V12Z" fill="white"/>
<path d="M12 23H10V30H17V28H12V23Z" fill="white"/>
<path d="M23.0001 10V12H28.0001V17H30.0001V10H23.0001Z" fill="white"/>
<path d="M28.0001 28H23.0001V30H30.0001V23H28.0001V28Z" fill="white"/>
<path d="M14 19H19V14H14V19ZM16 16H17V17H16V16Z" fill="white"/>
<path d="M26 14H21V19H26V14ZM24 17H23V16H24V17Z" fill="white"/>
<path d="M26 21H21V26H26V21ZM24 24H23V23H24V24Z" fill="white"/>
<path d="M14 26H19V21H14V26ZM16 23H17V24H16V23Z" fill="white"/>
</svg>
