<svg width="17" height="21" viewBox="0 0 17 21" fill="none" xmlns="http://www.w3.org/2000/svg">
<path d="M16.0689 4.48057L12.3189 0.730576C12.201 0.613584 12.0413 0.548389 11.8752 0.549326H1.87518C0.839636 0.549326 0.000183105 1.38878 0.000183105 2.42433V18.6743C0.000183105 19.7099 0.839636 20.5493 1.87518 20.5493H14.3752C15.4107 20.5493 16.2502 19.7099 16.2502 18.6743V4.92432C16.2512 4.75819 16.1859 4.59854 16.0689 4.48057ZM1.87518 19.2993C1.52999 19.2993 1.25018 19.0195 1.25018 18.6743V15.8056L5.00018 12.0556L12.2439 19.2993H1.87518ZM15.0002 18.6743C15.0002 19.0195 14.7204 19.2993 14.3752 19.2993H14.0064L9.63143 14.9243L11.2502 13.3056L15.0002 17.0556V18.6743ZM15.0002 15.2931L11.6939 11.9868C11.4501 11.7445 11.0565 11.7445 10.8127 11.9868L8.75018 14.0431L5.44393 10.7368C5.20014 10.4945 4.80647 10.4945 4.56268 10.7368L1.25018 14.0431V2.42433C1.25018 2.07913 1.52999 1.79933 1.87518 1.79933H11.2502V4.29932C11.2502 4.98968 11.8098 5.54932 12.5002 5.54932H15.0002V15.2931Z" fill="#1E2E4F"/>
<path d="M6.25018 3.67432C4.86948 3.67432 3.75018 4.79361 3.75018 6.17432C3.75018 7.55502 4.86948 8.67431 6.25018 8.67431C7.63088 8.67431 8.75018 7.55502 8.75018 6.17432C8.75018 4.79361 7.63088 3.67432 6.25018 3.67432ZM6.25018 7.42431C5.55983 7.42431 5.00018 6.86467 5.00018 6.17432C5.00018 5.48396 5.55983 4.92432 6.25018 4.92432C6.94053 4.92432 7.50018 5.48396 7.50018 6.17432C7.50018 6.86467 6.94053 7.42431 6.25018 7.42431Z" fill="#1E2E4F"/>
</svg>
